<svg width="283" height="29" viewBox="0 0 283 29" fill="none" xmlns="http://www.w3.org/2000/svg">
<path d="M14.0798 28.6599C5.80783 28.6599 0.923828 23.5559 0.923828 14.7119C0.923828 5.86794 6.20383 0.939941 14.2998 0.939941C21.3838 0.939941 25.6518 4.54794 26.3558 11.4119L18.7878 12.8199C18.2598 9.47594 17.0278 7.80394 14.0358 7.80394C10.1638 7.80394 8.79983 11.0159 8.79983 14.7119C8.79983 19.2439 10.2518 21.9279 13.9918 21.9279C17.1598 21.9279 18.2158 20.2119 18.9198 16.8239L26.3998 18.0559C25.6518 24.9199 21.1638 28.6599 14.0798 28.6599Z" fill="black" style="fill:black;fill-opacity:1;"/>
<path d="M41.8459 28.6599C33.2219 28.6599 28.3379 23.3799 28.3379 14.7119C28.3379 5.99994 33.6619 0.939941 41.8459 0.939941C50.2059 0.939941 55.3539 5.99994 55.3539 14.7119C55.3539 23.3799 50.4699 28.6599 41.8459 28.6599ZM41.8019 21.9279C45.9819 21.9279 47.4779 19.2879 47.4779 14.6679C47.4779 10.4439 45.9379 7.80394 41.8459 7.80394C37.7539 7.80394 36.2139 10.4879 36.2139 14.6679C36.2139 19.2439 37.7539 21.9279 41.8019 21.9279Z" fill="black" style="fill:black;fill-opacity:1;"/>
<path d="M66.9809 28.4839C61.5689 28.4839 57.1689 24.0399 57.1689 15.1519C57.1689 6.13194 61.6129 0.939941 70.3689 0.939941C77.7609 0.939941 81.1929 3.79994 82.2049 9.56394L74.7689 11.1039C74.2409 9.03594 73.3169 7.80394 70.3249 7.80394C66.4969 7.80394 65.1329 10.3999 65.1329 15.1519C65.1329 19.5519 66.5409 22.1039 70.4569 22.1039C74.3729 22.1039 75.2969 20.2999 75.2969 18.4959H70.1929V13.0839H82.6889V27.9999H75.5169V22.3679H74.8569C73.7569 25.8879 71.3809 28.4839 66.9809 28.4839ZM75.2969 18.4959L75.3409 18.6279V18.4959H75.2969Z" fill="black" style="fill:black;fill-opacity:1;"/>
<path d="M111.624 27.9999H101.196L97.4124 19.4199C96.4004 17.1319 94.7284 12.2919 93.4964 8.72794L92.9684 8.77194C93.3204 12.7759 93.5404 18.5399 93.5404 21.3119V27.9999H86.2804V1.59994H97.3684L100.536 8.63994C101.856 11.5879 103.44 16.3399 104.364 19.5959L104.892 19.5079C104.584 15.6799 104.364 11.3239 104.364 8.55194V1.59994H111.624V27.9999Z" fill="black" style="fill:black;fill-opacity:1;"/>
<path d="M123.161 1.59994V27.9999H115.241V1.59994H123.161Z" fill="#FF5C00" style="fill:#FF5C00;fill:color(display-p3 1.0000 0.3600 0.0000);fill-opacity:1;"/>
<path d="M143.609 18.3639H144.181C144.753 15.1519 145.501 11.8519 145.985 10.0919L148.229 1.59994H159.933V27.9999H152.013V18.3199C152.013 14.9759 152.189 11.1919 152.321 7.97994H151.749C151.001 11.5439 149.945 15.5919 148.713 19.7719L146.601 26.7239H139.473L137.449 19.5519C136.173 15.1519 135.249 11.4559 134.501 7.97994H133.929C133.973 11.2799 134.017 14.9759 134.017 18.3199V27.9999H126.757V1.59994H139.429L141.805 10.3999C142.201 12.0279 142.949 15.1519 143.609 18.3639Z" fill="black" style="fill:black;fill-opacity:1;"/>
<path d="M179.422 23.2039H170.578L169.258 27.9999H161.118L169.654 1.59994H180.654L189.19 27.9999H180.698L179.422 23.2039ZM175.506 8.37594H174.582C174.098 10.3559 173.614 12.2919 173.086 14.2719L172.162 17.5279H177.882L177.002 14.2719C176.474 12.2919 175.99 10.3559 175.506 8.37594Z" fill="black" style="fill:black;fill-opacity:1;"/>
<path d="M192.976 8.85994H186.024V1.59994H207.848V8.85994H200.896V27.9999H192.976V8.85994Z" fill="black" style="fill:black;fill-opacity:1;"/>
<path d="M215.964 8.85994H209.012V1.59994H230.836V8.85994H223.884V27.9999H215.964V8.85994Z" fill="black" style="fill:black;fill-opacity:1;"/>
<path d="M254.18 27.9999H233.148V1.59994H254.18V8.41994H241.068V11.9399H253.3V17.5279H241.068V21.1799H254.18V27.9999Z" fill="black" style="fill:black;fill-opacity:1;"/>
<path d="M268.335 19.8599H265.431V27.9999H257.511V1.59994H269.655C276.563 1.59994 280.479 4.54794 280.479 10.8839C280.479 14.7559 278.807 17.3079 275.947 18.6719L282.019 27.5159V27.9999H272.823L268.335 19.8599ZM269.083 8.19994H265.431V14.0959H269.215C271.811 14.0959 272.647 13.2159 272.647 11.1479C272.647 9.03594 271.547 8.19994 269.083 8.19994Z" fill="black" style="fill:black;fill-opacity:1;"/>
</svg>
